# Blender v2.72 (sub 0) OBJ File: 'pillar2.blend'
# www.blender.org
v 0.600000 -0.600000 -0.600000
v 0.600000 -0.600000 0.600000
v -0.600000 -0.600000 0.600000
v -0.600000 -0.600000 -0.600000
v 0.600000 2.338388 -0.600000
v 0.600000 2.338388 0.600000
v -0.600000 2.338388 0.600000
v -0.600000 2.338388 -0.600000
v 0.766143 -0.980701 -0.766143
v 0.766143 -0.980701 0.766143
v -0.766143 -0.980701 0.766143
v -0.766143 -0.980701 -0.766143
v 0.600000 4.647239 -0.600000
v 0.600000 3.504989 0.600000
v -0.600000 4.463059 0.600000
v -0.600000 4.650638 -0.600000
v 0.400000 -0.600000 -0.600000
v 0.200000 -0.600000 -0.600000
v 0.000000 -0.600000 -0.600000
v -0.200000 -0.600000 -0.600000
v -0.400000 -0.600000 -0.600000
v 0.400000 -0.600000 0.600000
v 0.200000 -0.600000 0.600000
v -0.000000 -0.600000 0.600000
v -0.200000 -0.600000 0.600000
v -0.400000 -0.600000 0.600000
v 0.400000 2.338388 -0.600000
v 0.200000 2.338388 -0.600000
v 0.000000 2.338388 -0.600000
v -0.200000 2.338388 -0.600000
v -0.400000 2.338388 -0.600000
v 0.400000 2.338388 0.600000
v 0.200000 2.338388 0.600000
v -0.000000 2.338388 0.600000
v -0.200000 2.338388 0.600000
v -0.400000 2.338388 0.600000
v 0.510762 -0.980701 -0.766143
v 0.255381 -0.980701 -0.766143
v 0.000000 -0.980701 -0.766143
v -0.255381 -0.980701 -0.766143
v -0.510762 -0.980701 -0.766143
v 0.510762 -0.980701 0.766143
v 0.255381 -0.980701 0.766143
v -0.000000 -0.980701 0.766143
v -0.255381 -0.980701 0.766143
v -0.510762 -0.980701 0.766143
v 0.400000 4.564793 -0.600000
v 0.200000 4.456557 -0.600000
v 0.000000 4.411870 -0.600000
v -0.200000 4.459315 -0.600000
v -0.400000 4.537212 -0.600000
v 0.400000 3.647540 0.600000
v 0.200000 3.987469 0.600000
v -0.000000 4.189114 0.600000
v -0.200000 4.286021 0.600000
v -0.400000 4.383329 0.600000
v 0.600000 -0.600000 -0.400000
v 0.600000 -0.600000 -0.200000
v 0.600000 -0.600000 0.000000
v 0.600000 -0.600000 0.200000
v 0.600000 -0.600000 0.400000
v -0.600000 -0.600000 0.400000
v -0.600000 -0.600000 0.200000
v -0.600000 -0.600000 -0.000000
v -0.600000 -0.600000 -0.200000
v -0.600000 -0.600000 -0.400000
v 0.600000 2.338388 -0.400000
v 0.600000 2.338388 -0.200000
v 0.600000 2.338388 0.000000
v 0.600000 2.338388 0.200000
v 0.600000 2.338388 0.400000
v -0.600000 2.338388 0.400000
v -0.600000 2.338388 0.200000
v -0.600000 2.338388 -0.000000
v -0.600000 2.338388 -0.200000
v -0.600000 2.338388 -0.400000
v 0.766143 -0.980701 -0.510762
v 0.766143 -0.980701 -0.255381
v 0.766143 -0.980701 0.000000
v 0.766143 -0.980701 0.255381
v 0.766143 -0.980701 0.510762
v -0.766143 -0.980701 0.510762
v -0.766143 -0.980701 0.255381
v -0.766143 -0.980701 -0.000000
v -0.766143 -0.980701 -0.255381
v -0.766143 -0.980701 -0.510762
v 0.600000 4.545815 -0.400000
v 0.600000 4.322816 -0.200000
v 0.600000 4.094906 0.000000
v 0.600000 3.944219 0.200000
v 0.600000 3.647540 0.400000
v -0.600000 4.467989 0.400000
v -0.600000 4.548898 0.200000
v -0.600000 4.594015 -0.000000
v -0.600000 4.642993 -0.200000
v -0.600000 4.654902 -0.400000
v 0.510762 -0.980701 0.510762
v 0.510762 -0.980701 0.255381
v 0.510762 -0.980701 0.000000
v 0.510762 -0.980701 -0.255381
v 0.510762 -0.980701 -0.510762
v 0.255381 -0.980701 0.510762
v 0.255381 -0.980701 0.255381
v 0.255381 -0.980701 0.000000
v 0.255381 -0.980701 -0.255381
v 0.255381 -0.980701 -0.510762
v -0.000000 -0.980701 0.510762
v -0.000000 -0.980701 0.255381
v -0.000000 -0.980701 0.000000
v -0.000000 -0.980701 -0.255381
v 0.000000 -0.980701 -0.510762
v -0.255381 -0.980701 0.510762
v -0.255381 -0.980701 0.255381
v -0.255381 -0.980701 -0.000000
v -0.255381 -0.980701 -0.255381
v -0.255381 -0.980701 -0.510762
v -0.510762 -0.980701 0.510762
v -0.510762 -0.980701 0.255381
v -0.510762 -0.980701 -0.000000
v -0.510762 -0.980701 -0.255381
v -0.510762 -0.980701 -0.510762
v 0.400000 4.401320 -0.400000
v 0.400000 4.300268 -0.200000
v 0.400000 4.113514 0.000000
v 0.400000 4.050061 0.200000
v 0.400000 3.771923 0.400000
v 0.200000 4.354878 -0.400000
v 0.200000 4.257380 -0.200000
v 0.200000 4.186706 0.000000
v 0.200000 4.087807 0.200000
v 0.200000 4.110443 0.400000
v 0.000000 4.309166 -0.400000
v -0.000000 4.276789 -0.200000
v -0.000000 4.259367 0.000000
v -0.000000 4.228004 0.200000
v -0.000000 4.212585 0.400000
v -0.200000 4.368910 -0.400000
v -0.200000 4.326590 -0.200000
v -0.200000 4.345994 0.000000
v -0.200000 4.335452 0.200000
v -0.200000 4.289958 0.400000
v -0.400000 4.451185 -0.400000
v -0.400000 4.466406 -0.200000
v -0.400000 4.422441 -0.000000
v -0.400000 4.387802 0.200000
v -0.400000 4.325451 0.400000
vt 0.420794 0.074778
vt 0.389099 0.067295
vt 0.391208 0.004172
vt 0.575075 0.519866
vt 0.579361 0.839066
vt 0.549368 0.840493
vt 0.064439 0.524707
vt 0.034228 0.525148
vt 0.025525 0.080348
vt 0.603601 0.519645
vt 0.570713 0.071178
vt 0.424887 0.521118
vt 0.396108 0.521301
vt 0.365843 0.521527
vt 0.358738 0.072401
vt 0.808924 0.284419
vt 0.770735 0.284419
vt 0.770735 0.246230
vt 0.602198 0.079382
vt 0.574074 0.007674
vt 0.238352 0.072725
vt 0.206133 0.065351
vt 0.208566 0.000129
vt 0.055139 0.079537
vt 0.000129 0.020816
vt 0.809461 0.075217
vt 0.774289 0.079399
vt 0.770735 0.050222
vt 0.751996 0.517783
vt 0.755880 0.691696
vt 0.726512 0.713637
vt 0.398963 0.870951
vt 0.185624 0.523159
vt 0.216006 0.522855
vt 0.218072 0.871449
vt 0.722401 0.518236
vt 0.719119 0.086711
vt 0.692761 0.518638
vt 0.690493 0.086068
vt 0.663081 0.519001
vt 0.661604 0.084815
vt 0.633361 0.519334
vt 0.632331 0.082665
vt 0.244913 0.522620
vt 0.269097 0.074884
vt 0.275129 0.522325
vt 0.299009 0.075550
vt 0.305355 0.522046
vt 0.328716 0.074689
vt 0.335592 0.521779
vt 0.770735 0.475366
vt 0.770735 0.437177
vt 0.808924 0.437177
vt 0.770735 0.398987
vt 0.808924 0.398987
vt 0.770735 0.360798
vt 0.808924 0.360798
vt 0.770735 0.322608
vt 0.808924 0.322608
vt 0.735351 0.029679
vt 0.770478 0.029702
vt 0.700426 0.029436
vt 0.666331 0.028546
vt 0.633471 0.025700
vt 0.601913 0.019241
vt 0.362759 0.014083
vt 0.331280 0.019161
vt 0.299677 0.020765
vt 0.268210 0.018704
vt 0.236982 0.012224
vt 0.958769 0.040926
vt 0.962839 0.006795
vt 0.998470 0.000129
vt 0.904627 0.063075
vt 0.908601 0.027603
vt 0.870607 0.068237
vt 0.867674 0.038194
vt 0.838643 0.072320
vt 0.835021 0.042752
vt 0.802099 0.046111
vt 0.609146 0.826408
vt 0.638798 0.811137
vt 0.668416 0.795952
vt 0.697697 0.765112
vt 0.248106 0.858786
vt 0.278069 0.842248
vt 0.308141 0.835320
vt 0.338356 0.842326
vt 0.368628 0.853948
vt 0.540403 0.075671
vt 0.545283 0.017218
vt 0.510476 0.077504
vt 0.513627 0.021876
vt 0.480915 0.078007
vt 0.481858 0.023123
vt 0.451211 0.077087
vt 0.450174 0.020931
vt 0.418992 0.015216
vt 0.429184 0.871449
vt 0.454945 0.520866
vt 0.459381 0.868961
vt 0.484993 0.520614
vt 0.489452 0.860872
vt 0.515029 0.520359
vt 0.519475 0.853375
vt 0.545057 0.520107
vt 0.175197 0.071008
vt 0.155276 0.523506
vt 0.144653 0.074280
vt 0.124962 0.523884
vt 0.114636 0.076646
vt 0.094684 0.524285
vt 0.084818 0.078325
vt 0.999871 0.284419
vt 0.961682 0.284419
vt 0.961682 0.246230
vt 0.923493 0.284419
vt 0.923493 0.246230
vt 0.885303 0.284419
vt 0.885303 0.246230
vt 0.847114 0.284419
vt 0.847114 0.246230
vt 0.808924 0.246230
vt 0.178746 0.009755
vt 0.144986 0.014939
vt 0.109948 0.017620
vt 0.073837 0.018994
vt 0.037066 0.019976
vt 0.777499 0.230694
vt 0.773622 0.201209
vt 0.814634 0.195205
vt 0.770735 0.171765
vt 0.771289 0.141288
vt 0.810093 0.135804
vt 0.771330 0.110964
vt 0.808943 0.105529
vt 0.066341 0.721954
vt 0.096853 0.766384
vt 0.127154 0.788831
vt 0.157525 0.822955
vt 0.187866 0.856367
vt 0.961682 0.475366
vt 0.961682 0.437177
vt 0.999871 0.437177
vt 0.923493 0.475366
vt 0.923493 0.437177
vt 0.885303 0.475366
vt 0.885303 0.437177
vt 0.847114 0.475366
vt 0.847114 0.437177
vt 0.808924 0.475366
vt 0.961682 0.398987
vt 0.999871 0.398987
vt 0.923493 0.398987
vt 0.885303 0.398987
vt 0.847114 0.398987
vt 0.961682 0.360798
vt 0.999871 0.360798
vt 0.923493 0.360798
vt 0.885303 0.360798
vt 0.847114 0.360798
vt 0.961682 0.322608
vt 0.999871 0.322608
vt 0.923493 0.322608
vt 0.885303 0.322608
vt 0.847114 0.322608
vt 0.967935 0.245973
vt 0.936705 0.237470
vt 0.936504 0.198537
vt 0.971037 0.212564
vt 0.938134 0.164163
vt 0.968497 0.167706
vt 0.940971 0.122413
vt 0.941323 0.089606
vt 0.976149 0.085910
vt 0.992743 0.035922
vt 0.904287 0.227551
vt 0.905828 0.194073
vt 0.906758 0.160129
vt 0.908199 0.127002
vt 0.910129 0.092920
vt 0.874125 0.223175
vt 0.875874 0.190110
vt 0.876016 0.160429
vt 0.875086 0.129760
vt 0.873732 0.098618
vt 0.843518 0.224448
vt 0.845559 0.192020
vt 0.845604 0.162140
vt 0.841948 0.132682
vt 0.839693 0.102893
vt 0.811433 0.226593
vt 0.809918 0.166332
vt 0.747589 0.086822
vt 0.999871 0.246230
vt 0.036023 0.700784
vt 0.999871 0.475366
vt 0.970859 0.122557
vn -0.916500 0.400000 -0.000000
vn -1.000000 0.000000 -0.000000
vn 1.000000 0.000000 0.000000
vn -0.000000 0.000000 1.000000
vn 0.000000 0.000000 -1.000000
vn 0.000000 -1.000000 0.000000
vn 0.000000 0.400000 0.916500
vn 0.000000 0.400000 -0.916500
vn 0.916500 0.400000 0.000000
vn 0.580300 0.814200 0.020100
vn 0.517800 0.726500 0.451800
vn 0.822800 0.484100 0.297700
vn 0.707600 0.701800 0.082400
vn 0.436000 0.899800 0.017700
vn 0.168000 0.946900 -0.274000
vn 0.713500 0.700500 -0.014900
vn 0.713000 0.700000 0.041700
vn 0.640100 0.746200 0.182700
vn 0.617800 0.767000 0.173000
vn 0.551200 0.773500 0.312900
vn -0.304100 0.737600 0.602900
vn -0.541900 0.750100 0.379000
vn -0.082100 0.728400 0.680200
vn 0.450400 0.851000 0.270000
vn 0.341300 0.548800 0.763100
vn -0.434500 0.802900 0.408200
vn -0.204300 0.879900 0.429000
vn 0.326200 0.891300 0.315000
vn 0.166800 0.883800 0.437100
vn 0.859500 0.507800 -0.057500
vn -0.194900 0.872500 0.448000
vn -0.220100 0.962900 0.155900
vn 0.340300 0.936800 0.081600
vn 0.569300 0.812200 0.127400
vn 0.572900 0.817200 0.063000
vn 0.262600 0.879200 0.397400
vn 0.236700 0.950500 0.201100
vn 0.240600 0.966100 -0.093700
vn 0.472800 0.880000 0.046400
vn 0.353000 0.912300 0.207500
vn 0.353500 0.859300 0.369600
vn 0.571800 0.818000 -0.062300
vn 0.349700 0.915000 0.201100
vn 0.249700 0.954100 0.165200
vn 0.167000 0.941300 0.293400
vn 0.357600 0.897100 -0.259600
vn 0.451800 0.726500 0.517800
vn 0.820900 0.485000 0.301600
vn 0.398900 0.781100 0.480300
vn 0.358700 0.927100 0.108800
vn 0.437400 0.899100 0.017700
vn 0.462000 0.814700 0.350400
vn 0.660800 0.748400 -0.057000
vn 0.653100 0.739600 0.162600
vn 0.645600 0.752500 0.130300
vn 0.609600 0.756800 0.235900
vn -0.541600 0.749700 0.380200
vn -0.075100 0.665800 0.742400
vn 0.061300 0.658300 0.750200
vn 0.074100 0.796500 0.600100
vn 0.283700 0.536000 0.795100
vn -0.177000 0.762100 0.622900
vn -0.188000 0.876600 0.442900
vn -0.154800 0.722100 0.674300
vn 0.329400 0.900000 0.285500
vn 0.109500 0.580300 0.807000
vn -0.199600 0.873500 0.444100
vn 0.086900 0.895500 0.436500
vn 0.091100 0.938900 0.331800
vn 0.309700 0.852300 0.421500
vn 0.452500 0.886100 -0.100300
vn 0.206500 0.870400 0.447000
vn 0.282800 0.946800 0.153300
vn 0.396200 0.914700 0.079700
vn 0.393400 0.908300 0.142400
vn 0.472200 0.878900 0.067800
vn 0.334500 0.858800 0.388200
vn 0.373400 0.907600 0.192000
vn 0.571200 0.817000 -0.079300
vn 0.356600 0.933000 0.049200
vn 0.247300 0.944800 0.214900
s off
f 66/1/1 4/2/1 12/3/1
f 7/4/2 15/5/2 92/6/2
f 71/7/3 6/8/3 2/9/3
f 36/10/4 7/4/4 3/11/4
f 76/12/2 8/13/2 4/2/2
f 31/14/5 21/15/5 4/2/5
f 117/16/6 46/17/6 11/18/6
f 26/19/7 3/11/7 11/20/7
f 17/21/8 1/22/8 9/23/8
f 61/24/9 2/9/9 10/25/9
f 146/26/10 92/27/10 15/28/10
f 6/29/4 14/30/4 52/31/4
f 31/14/5 8/13/5 16/32/5
f 67/33/3 5/34/3 13/35/3
f 6/29/4 32/36/4 22/37/4
f 32/36/4 33/38/4 23/39/4
f 33/38/4 34/40/4 24/41/4
f 34/40/4 35/42/4 25/43/4
f 35/42/4 36/10/4 26/19/4
f 1/22/5 17/21/5 27/44/5
f 17/21/5 18/45/5 28/46/5
f 18/45/5 19/47/5 29/48/5
f 19/47/5 20/49/5 30/50/5
f 20/49/5 21/15/5 31/14/5
f 10/51/6 42/52/6 97/53/6
f 42/52/6 43/54/6 102/55/6
f 43/54/6 44/56/6 107/57/6
f 44/56/6 45/58/6 112/59/6
f 45/58/6 46/17/6 117/16/6
f 22/37/7 42/60/7 10/61/7
f 23/39/7 43/62/7 42/60/7
f 24/41/7 44/63/7 43/62/7
f 24/41/7 25/43/7 45/64/7
f 25/43/7 26/19/7 46/65/7
f 21/15/8 41/66/8 12/3/8
f 20/49/8 40/67/8 41/66/8
f 19/47/8 39/68/8 40/67/8
f 19/47/8 18/45/8 38/69/8
f 18/45/8 17/21/8 37/70/8
f 126/71/11 52/72/11 14/73/11
f 131/74/12 53/75/12 52/72/12
f 136/76/13 54/77/13 53/75/13
f 141/78/14 55/79/14 54/77/14
f 141/78/15 146/26/15 56/80/15
f 36/10/4 56/81/4 15/5/4
f 35/42/4 55/82/4 56/81/4
f 34/40/4 54/83/4 55/82/4
f 33/38/4 53/84/4 54/83/4
f 32/36/4 52/31/4 53/84/4
f 27/44/5 47/85/5 13/35/5
f 28/46/5 48/86/5 47/85/5
f 29/48/5 49/87/5 48/86/5
f 29/48/5 30/50/5 50/88/5
f 30/50/5 31/14/5 51/89/5
f 62/90/1 82/91/1 11/20/1
f 63/92/1 83/93/1 82/91/1
f 64/94/1 84/95/1 83/93/1
f 64/94/1 65/96/1 85/97/1
f 65/96/1 66/1/1 86/98/1
f 8/13/2 76/12/2 96/99/2
f 75/100/2 95/101/2 96/99/2
f 74/102/2 94/103/2 95/101/2
f 73/104/2 93/105/2 94/103/2
f 72/106/2 92/6/2 93/105/2
f 5/34/3 67/33/3 57/107/3
f 67/33/3 68/108/3 58/109/3
f 68/108/3 69/110/3 59/111/3
f 69/110/3 70/112/3 60/113/3
f 70/112/3 71/7/3 61/24/3
f 7/4/2 72/106/2 62/90/2
f 72/106/2 73/104/2 63/92/2
f 73/104/2 74/102/2 64/94/2
f 74/102/2 75/100/2 65/96/2
f 75/100/2 76/12/2 66/1/2
f 41/114/6 121/115/6 86/116/6
f 120/117/6 85/118/6 86/116/6
f 119/119/6 84/120/6 85/118/6
f 119/119/6 118/121/6 83/122/6
f 118/121/6 117/16/6 82/123/6
f 57/107/9 77/124/9 9/23/9
f 58/109/9 78/125/9 77/124/9
f 59/111/9 79/126/9 78/125/9
f 59/111/9 60/113/9 80/127/9
f 60/113/9 61/24/9 81/128/9
f 16/129/16 96/130/16 142/131/16
f 142/131/17 96/130/17 95/132/17
f 95/132/18 94/133/18 144/134/18
f 94/133/19 93/135/19 145/136/19
f 93/135/20 92/27/20 146/26/20
f 6/8/3 71/7/3 91/137/3
f 71/7/3 70/112/3 90/138/3
f 70/112/3 69/110/3 89/139/3
f 69/110/3 68/108/3 88/140/3
f 68/108/3 67/33/3 87/141/3
f 77/142/6 101/143/6 37/144/6
f 78/145/6 100/146/6 101/143/6
f 79/147/6 99/148/6 100/146/6
f 80/149/6 98/150/6 99/148/6
f 81/151/6 97/53/6 98/150/6
f 101/143/6 106/152/6 38/153/6
f 100/146/6 105/154/6 106/152/6
f 99/148/6 104/155/6 105/154/6
f 98/150/6 103/156/6 104/155/6
f 97/53/6 102/55/6 103/156/6
f 106/152/6 111/157/6 39/158/6
f 106/152/6 105/154/6 110/159/6
f 105/154/6 104/155/6 109/160/6
f 103/156/6 108/161/6 109/160/6
f 103/156/6 102/55/6 107/57/6
f 111/157/6 116/162/6 40/163/6
f 110/159/6 115/164/6 116/162/6
f 109/160/6 114/165/6 115/164/6
f 108/161/6 113/166/6 114/165/6
f 107/57/6 112/59/6 113/166/6
f 116/162/6 121/115/6 41/114/6
f 115/164/6 120/117/6 121/115/6
f 114/165/6 119/119/6 120/117/6
f 113/166/6 118/121/6 119/119/6
f 112/59/6 117/16/6 118/121/6
f 13/167/21 47/168/21 122/169/21
f 87/170/22 122/169/22 123/171/22
f 88/172/23 123/171/23 124/173/23
f 124/173/24 125/174/24 90/175/24
f 125/174/25 126/71/25 91/176/25
f 47/168/26 48/177/26 127/178/26
f 122/169/27 127/178/27 128/179/27
f 128/179/28 129/180/28 124/173/28
f 129/180/29 130/181/29 125/174/29
f 130/181/30 131/74/30 126/71/30
f 48/177/31 49/182/31 132/183/31
f 127/178/32 132/183/32 133/184/32
f 133/184/33 134/185/33 129/180/33
f 134/185/34 135/186/34 130/181/34
f 130/181/35 135/186/35 136/76/35
f 50/187/36 137/188/36 132/183/36
f 137/188/37 138/189/37 133/184/37
f 133/184/38 138/189/38 139/190/38
f 139/190/39 140/191/39 135/186/39
f 140/191/40 141/78/40 136/76/40
f 51/192/41 142/131/41 137/188/41
f 142/131/42 143/193/42 138/189/42
f 143/193/43 144/134/43 139/190/43
f 144/134/44 145/136/44 140/191/44
f 145/136/45 146/26/45 141/78/45
f 86/98/1 66/1/1 12/3/1
f 72/106/2 7/4/2 92/6/2
f 61/24/3 71/7/3 2/9/3
f 26/19/4 36/10/4 3/11/4
f 66/1/2 76/12/2 4/2/2
f 8/13/5 31/14/5 4/2/5
f 82/123/6 117/16/6 11/18/6
f 46/65/7 26/19/7 11/20/7
f 37/70/8 17/21/8 9/23/8
f 81/128/9 61/24/9 10/25/9
f 56/80/46 146/26/46 15/28/46
f 32/36/4 6/29/4 52/31/4
f 51/89/5 31/14/5 16/32/5
f 87/141/3 67/33/3 13/35/3
f 2/194/4 6/29/4 22/37/4
f 22/37/4 32/36/4 23/39/4
f 23/39/4 33/38/4 24/41/4
f 24/41/4 34/40/4 25/43/4
f 25/43/4 35/42/4 26/19/4
f 5/34/5 1/22/5 27/44/5
f 27/44/5 17/21/5 28/46/5
f 28/46/5 18/45/5 29/48/5
f 29/48/5 19/47/5 30/50/5
f 30/50/5 20/49/5 31/14/5
f 81/151/6 10/51/6 97/53/6
f 97/53/6 42/52/6 102/55/6
f 102/55/6 43/54/6 107/57/6
f 107/57/6 44/56/6 112/59/6
f 112/59/6 45/58/6 117/16/6
f 2/194/7 22/37/7 10/61/7
f 22/37/7 23/39/7 42/60/7
f 23/39/7 24/41/7 43/62/7
f 44/63/7 24/41/7 45/64/7
f 45/64/7 25/43/7 46/65/7
f 4/2/8 21/15/8 12/3/8
f 21/15/8 20/49/8 41/66/8
f 20/49/8 19/47/8 40/67/8
f 39/68/8 19/47/8 38/69/8
f 38/69/8 18/45/8 37/70/8
f 91/176/47 126/71/47 14/73/47
f 126/71/48 131/74/48 52/72/48
f 131/74/49 136/76/49 53/75/49
f 136/76/50 141/78/50 54/77/50
f 55/79/51 141/78/51 56/80/51
f 7/4/4 36/10/4 15/5/4
f 36/10/4 35/42/4 56/81/4
f 35/42/4 34/40/4 55/82/4
f 34/40/4 33/38/4 54/83/4
f 33/38/4 32/36/4 53/84/4
f 5/34/5 27/44/5 13/35/5
f 27/44/5 28/46/5 47/85/5
f 28/46/5 29/48/5 48/86/5
f 49/87/5 29/48/5 50/88/5
f 50/88/5 30/50/5 51/89/5
f 3/11/1 62/90/1 11/20/1
f 62/90/1 63/92/1 82/91/1
f 63/92/1 64/94/1 83/93/1
f 84/95/1 64/94/1 85/97/1
f 85/97/1 65/96/1 86/98/1
f 16/32/2 8/13/2 96/99/2
f 76/12/2 75/100/2 96/99/2
f 75/100/2 74/102/2 95/101/2
f 74/102/2 73/104/2 94/103/2
f 73/104/2 72/106/2 93/105/2
f 1/22/3 5/34/3 57/107/3
f 57/107/3 67/33/3 58/109/3
f 58/109/3 68/108/3 59/111/3
f 59/111/3 69/110/3 60/113/3
f 60/113/3 70/112/3 61/24/3
f 3/11/2 7/4/2 62/90/2
f 62/90/2 72/106/2 63/92/2
f 63/92/2 73/104/2 64/94/2
f 64/94/2 74/102/2 65/96/2
f 65/96/2 75/100/2 66/1/2
f 12/195/6 41/114/6 86/116/6
f 121/115/6 120/117/6 86/116/6
f 120/117/6 119/119/6 85/118/6
f 84/120/6 119/119/6 83/122/6
f 83/122/6 118/121/6 82/123/6
f 1/22/9 57/107/9 9/23/9
f 57/107/9 58/109/9 77/124/9
f 58/109/9 59/111/9 78/125/9
f 79/126/9 59/111/9 80/127/9
f 80/127/9 60/113/9 81/128/9
f 51/192/52 16/129/52 142/131/52
f 143/193/53 142/131/53 95/132/53
f 143/193/54 95/132/54 144/134/54
f 144/134/55 94/133/55 145/136/55
f 145/136/56 93/135/56 146/26/56
f 14/196/3 6/8/3 91/137/3
f 91/137/3 71/7/3 90/138/3
f 90/138/3 70/112/3 89/139/3
f 89/139/3 69/110/3 88/140/3
f 88/140/3 68/108/3 87/141/3
f 9/197/6 77/142/6 37/144/6
f 77/142/6 78/145/6 101/143/6
f 78/145/6 79/147/6 100/146/6
f 79/147/6 80/149/6 99/148/6
f 80/149/6 81/151/6 98/150/6
f 37/144/6 101/143/6 38/153/6
f 101/143/6 100/146/6 106/152/6
f 100/146/6 99/148/6 105/154/6
f 99/148/6 98/150/6 104/155/6
f 98/150/6 97/53/6 103/156/6
f 38/153/6 106/152/6 39/158/6
f 111/157/6 106/152/6 110/159/6
f 110/159/6 105/154/6 109/160/6
f 104/155/6 103/156/6 109/160/6
f 108/161/6 103/156/6 107/57/6
f 39/158/6 111/157/6 40/163/6
f 111/157/6 110/159/6 116/162/6
f 110/159/6 109/160/6 115/164/6
f 109/160/6 108/161/6 114/165/6
f 108/161/6 107/57/6 113/166/6
f 40/163/6 116/162/6 41/114/6
f 116/162/6 115/164/6 121/115/6
f 115/164/6 114/165/6 120/117/6
f 114/165/6 113/166/6 119/119/6
f 113/166/6 112/59/6 118/121/6
f 87/170/57 13/167/57 122/169/57
f 88/172/58 87/170/58 123/171/58
f 89/198/59 88/172/59 124/173/59
f 89/198/60 124/173/60 90/175/60
f 90/175/61 125/174/61 91/176/61
f 122/169/62 47/168/62 127/178/62
f 123/171/63 122/169/63 128/179/63
f 123/171/64 128/179/64 124/173/64
f 124/173/65 129/180/65 125/174/65
f 125/174/66 130/181/66 126/71/66
f 127/178/67 48/177/67 132/183/67
f 128/179/68 127/178/68 133/184/68
f 128/179/69 133/184/69 129/180/69
f 129/180/70 134/185/70 130/181/70
f 131/74/71 130/181/71 136/76/71
f 49/182/72 50/187/72 132/183/72
f 132/183/73 137/188/73 133/184/73
f 134/185/74 133/184/74 139/190/74
f 134/185/75 139/190/75 135/186/75
f 135/186/76 140/191/76 136/76/76
f 50/187/77 51/192/77 137/188/77
f 137/188/78 142/131/78 138/189/78
f 138/189/79 143/193/79 139/190/79
f 139/190/80 144/134/80 140/191/80
f 140/191/81 145/136/81 141/78/81
