# Blender v2.72 (sub 0) OBJ File: 'water.blend'
# www.blender.org
v -0.000001 -0.859192 0.000001
v 1.548214 -0.859192 -1.034479
v 1.316649 -0.859192 -1.316643
v 1.720282 -0.859192 -0.712560
v 1.826241 -0.859192 -0.363257
v 1.862019 -0.859192 0.000005
v 1.826240 -0.859192 0.363266
v 1.720280 -0.859192 0.712567
v 1.548211 -0.859192 1.034485
v 1.316645 -0.859192 1.316648
v 1.034481 -0.859192 1.548214
v 0.712564 -0.859192 1.720282
v 0.363262 -0.859192 1.826242
v 0.000001 -0.859192 1.862020
v -0.363260 -0.859192 1.826243
v -0.712561 -0.859192 1.720284
v -1.034480 -0.859192 1.548216
v -1.316644 -0.859192 1.316651
v -1.548210 -0.859192 1.034488
v -1.720280 -0.859192 0.712571
v -1.826240 -0.859192 0.363270
v -1.862020 -0.859192 0.000009
v -1.826243 -0.859192 -0.363253
v -1.720285 -0.859192 -0.712555
v -1.548219 -0.859192 -1.034474
v -1.316654 -0.859192 -1.316638
v -1.034492 -0.859192 -1.548205
v -0.712576 -0.859192 -1.720276
v -0.363275 -0.859192 -1.826238
v -0.000014 -0.859192 -1.862018
v 0.363247 -0.859192 -1.826243
v 0.712550 -0.859192 -1.720286
v 1.034469 -0.859192 -1.548220
v 1.316649 -0.859192 -1.316643
v 1.548214 -0.859192 -1.034479
v 1.720282 -0.859192 -0.712560
v 1.826241 -0.859192 -0.363257
v 1.862019 -0.859192 0.000005
v 1.826240 -0.859192 0.363266
v 1.720280 -0.859192 0.712567
v 1.548211 -0.859192 1.034485
v 1.316645 -0.859192 1.316648
v 1.034481 -0.859192 1.548214
v 0.712564 -0.859192 1.720282
v 0.363262 -0.859192 1.826242
v 0.000001 -0.859192 1.862020
v -0.363260 -0.859192 1.826243
v -0.712561 -0.859192 1.720284
v -1.034480 -0.859192 1.548216
v -1.316644 -0.859192 1.316651
v -1.548210 -0.859192 1.034488
v -1.720280 -0.859192 0.712571
v -1.826240 -0.859192 0.363270
v -1.862020 -0.859192 0.000009
v -1.826243 -0.859192 -0.363253
v -1.720285 -0.859192 -0.712555
v -1.548219 -0.859192 -1.034474
v -1.316654 -0.859192 -1.316638
v -1.034492 -0.859192 -1.548205
v -0.712576 -0.859192 -1.720276
v -0.363275 -0.859192 -1.826238
v -0.000014 -0.859192 -1.862018
v 0.363247 -0.859192 -1.826243
v 0.712550 -0.859192 -1.720286
v 1.034469 -0.859192 -1.548220
vt 0.499998 0.499999
vt 0.998155 0.450915
vt 0.998161 0.549045
vt 0.979009 0.354672
vt 0.941450 0.264015
vt 0.886930 0.182426
vt 0.817543 0.113039
vt 0.735947 0.058527
vt 0.645288 0.020975
vt 0.549042 0.001839
vt 0.450914 0.001842
vt 0.354670 0.020984
vt 0.264012 0.058542
vt 0.182423 0.113064
vt 0.113040 0.182457
vt 0.058527 0.264050
vt 0.020979 0.354710
vt 0.001839 0.450954
vt 0.001842 0.549081
vt 0.020987 0.645324
vt 0.058545 0.735981
vt 0.113065 0.817570
vt 0.182452 0.886957
vt 0.264044 0.941474
vt 0.354706 0.979022
vt 0.450951 0.998159
vt 0.549080 0.998155
vt 0.645323 0.979012
vt 0.735979 0.941453
vt 0.817567 0.886932
vt 0.886952 0.817542
vt 0.941466 0.735950
vt 0.979016 0.645290
vt 0.999897 0.450762
vt 0.980687 0.354182
vt 0.943001 0.263207
vt 0.888293 0.181331
vt 0.818666 0.111699
vt 0.736788 0.056993
vt 0.645813 0.019307
vt 0.549232 0.000100
vt 0.450761 0.000100
vt 0.354180 0.019306
vt 0.263204 0.056991
vt 0.181328 0.111700
vt 0.111700 0.181334
vt 0.056994 0.263210
vt 0.019311 0.354185
vt 0.000101 0.450764
vt 0.000100 0.549234
vt 0.019308 0.645814
vt 0.056994 0.736789
vt 0.111701 0.818665
vt 0.181328 0.888297
vt 0.263203 0.943007
vt 0.354181 0.980690
vt 0.450762 0.999897
vt 0.549233 0.999897
vt 0.645813 0.980691
vt 0.736787 0.943004
vt 0.818663 0.888295
vt 0.888292 0.818666
vt 0.943000 0.736791
vt 0.980684 0.645815
vt 0.999900 0.549234
vn 0.000000 1.000000 0.000000
vn 0.000000 0.683900 0.729500
vn 0.000000 0.683900 0.729600
vn 0.000000 0.000000 1.000000
s 1
f 1/1/1 2/2/2 3/3/2
f 1/1/1 4/4/2 2/2/2
f 1/1/1 5/5/2 4/4/2
f 1/1/1 6/6/3 5/5/2
f 1/1/1 7/7/2 6/6/3
f 1/1/1 8/8/3 7/7/2
f 1/1/1 9/9/2 8/8/3
f 1/1/1 10/10/2 9/9/2
f 1/1/1 11/11/3 10/10/2
f 1/1/1 12/12/2 11/11/3
f 1/1/1 13/13/2 12/12/2
f 1/1/1 14/14/2 13/13/2
f 1/1/1 15/15/2 14/14/2
f 1/1/1 16/16/2 15/15/2
f 1/1/1 17/17/2 16/16/2
f 1/1/1 18/18/2 17/17/2
f 1/1/1 19/19/2 18/18/2
f 1/1/1 20/20/2 19/19/2
f 1/1/1 21/21/2 20/20/2
f 1/1/1 22/22/2 21/21/2
f 1/1/1 23/23/2 22/22/2
f 1/1/1 24/24/2 23/23/2
f 1/1/1 25/25/2 24/24/2
f 1/1/1 26/26/2 25/25/2
f 1/1/1 27/27/3 26/26/2
f 1/1/1 28/28/2 27/27/3
f 1/1/1 29/29/2 28/28/2
f 1/1/1 30/30/2 29/29/2
f 1/1/1 31/31/2 30/30/2
f 1/1/1 32/32/2 31/31/2
f 1/1/1 33/33/3 32/32/2
f 1/1/1 3/3/2 33/33/3
f 3/3/2 2/2/2 35/34/4
f 2/2/2 4/4/2 36/35/4
f 4/4/2 5/5/2 37/36/4
f 5/5/2 6/6/3 38/37/4
f 6/6/3 7/7/2 39/38/4
f 7/7/2 8/8/3 40/39/4
f 8/8/3 9/9/2 41/40/4
f 9/9/2 10/10/2 42/41/4
f 10/10/2 11/11/3 43/42/4
f 11/11/3 12/12/2 44/43/4
f 12/12/2 13/13/2 45/44/4
f 13/13/2 14/14/2 46/45/4
f 14/14/2 15/15/2 47/46/4
f 15/15/2 16/16/2 48/47/4
f 16/16/2 17/17/2 49/48/4
f 17/17/2 18/18/2 50/49/4
f 18/18/2 19/19/2 51/50/4
f 19/19/2 20/20/2 52/51/4
f 20/20/2 21/21/2 53/52/4
f 21/21/2 22/22/2 54/53/4
f 22/22/2 23/23/2 55/54/4
f 23/23/2 24/24/2 56/55/4
f 24/24/2 25/25/2 57/56/4
f 25/25/2 26/26/2 58/57/4
f 26/26/2 27/27/3 59/58/4
f 27/27/3 28/28/2 60/59/4
f 28/28/2 29/29/2 61/60/4
f 29/29/2 30/30/2 62/61/4
f 30/30/2 31/31/2 63/62/4
f 31/31/2 32/32/2 64/63/4
f 32/32/2 33/33/3 65/64/4
f 33/33/3 3/3/2 34/65/4
f 34/65/4 3/3/2 35/34/4
f 35/34/4 2/2/2 36/35/4
f 36/35/4 4/4/2 37/36/4
f 37/36/4 5/5/2 38/37/4
f 38/37/4 6/6/3 39/38/4
f 39/38/4 7/7/2 40/39/4
f 40/39/4 8/8/3 41/40/4
f 41/40/4 9/9/2 42/41/4
f 42/41/4 10/10/2 43/42/4
f 43/42/4 11/11/3 44/43/4
f 44/43/4 12/12/2 45/44/4
f 45/44/4 13/13/2 46/45/4
f 46/45/4 14/14/2 47/46/4
f 47/46/4 15/15/2 48/47/4
f 48/47/4 16/16/2 49/48/4
f 49/48/4 17/17/2 50/49/4
f 50/49/4 18/18/2 51/50/4
f 51/50/4 19/19/2 52/51/4
f 52/51/4 20/20/2 53/52/4
f 53/52/4 21/21/2 54/53/4
f 54/53/4 22/22/2 55/54/4
f 55/54/4 23/23/2 56/55/4
f 56/55/4 24/24/2 57/56/4
f 57/56/4 25/25/2 58/57/4
f 58/57/4 26/26/2 59/58/4
f 59/58/4 27/27/3 60/59/4
f 60/59/4 28/28/2 61/60/4
f 61/60/4 29/29/2 62/61/4
f 62/61/4 30/30/2 63/62/4
f 63/62/4 31/31/2 64/63/4
f 64/63/4 32/32/2 65/64/4
f 65/64/4 33/33/3 34/65/4
